<?xml version="1.0" encoding="UTF-8"?>
<!DOCTYPE svg PUBLIC "-//W3C//DTD SVG 1.1//EN" "http://www.w3.org/Graphics/SVG/1.1/DTD/svg11.dtd">
<svg xmlns="http://www.w3.org/2000/svg" version="1.1" width="351px" height="383px" style="shape-rendering:geometricPrecision; text-rendering:geometricPrecision; image-rendering:optimizeQuality; fill-rule:evenodd; clip-rule:evenodd" xmlns:xlink="http://www.w3.org/1999/xlink">
<g><path style="opacity:1" fill="#e03401" d="M 71.5,-0.5 C 73.5,-0.5 75.5,-0.5 77.5,-0.5C 105.882,18.7167 132.882,39.8834 158.5,63C 174.157,77.9817 188.323,94.1483 201,111.5C 203.507,114.376 204.007,117.543 202.5,121C 170.894,132.629 141.894,148.629 115.5,169C 107.268,176.397 99.6017,184.23 92.5,192.5C 90.7259,191.119 89.2259,191.452 88,193.5C 87.235,195.066 87.4017,196.399 88.5,197.5C 82.3132,206.536 77.1465,216.202 73,226.5C 72.3333,227.833 71.6667,227.833 71,226.5C 70.6063,201.302 75.773,177.302 86.5,154.5C 88.0481,154.179 88.7148,153.179 88.5,151.5C 90.2146,147.069 92.2146,142.735 94.5,138.5C 73.9611,162.214 59.4611,189.88 51,221.5C 42.728,260.142 50.0613,295.476 73,327.5C 76.976,338.418 80.3093,349.418 83,360.5C 81.1316,361.672 79.2983,361.505 77.5,360C 34.0602,334.928 8.06017,297.762 -0.5,248.5C -0.5,239.833 -0.5,231.167 -0.5,222.5C 2.64381,200.597 8.31048,179.264 16.5,158.5C 18.1765,157.817 18.8432,156.483 18.5,154.5C 23.9119,139.599 29.9119,124.932 36.5,110.5C 38.1765,109.817 38.8432,108.483 38.5,106.5C 39.6389,103.082 40.9723,99.7487 42.5,96.5C 44.1765,95.8166 44.8432,94.4832 44.5,92.5C 45.836,89.1623 47.1693,85.8289 48.5,82.5C 50.1765,81.8166 50.8432,80.4832 50.5,78.5C 52.5,73.1667 54.5,67.8333 56.5,62.5C 58.1765,61.8166 58.8432,60.4832 58.5,58.5C 65.8457,39.4552 70.1791,19.7885 71.5,-0.5 Z"/></g>
<g><path style="opacity:1" fill="#cc390f" d="M 58.5,58.5 C 58.8432,60.4832 58.1765,61.8166 56.5,62.5C 56.9887,61.0048 57.6554,59.6715 58.5,58.5 Z"/></g>
<g><path style="opacity:1" fill="#2a2b2a" d="M 350.5,170.5 C 350.5,179.5 350.5,188.5 350.5,197.5C 349.715,233.641 341.215,267.974 325,300.5C 300.846,340.694 265.679,365.861 219.5,376C 206.12,378.79 192.787,380.956 179.5,382.5C 169.167,382.5 158.833,382.5 148.5,382.5C 146.563,381.069 144.73,379.402 143,377.5C 128.142,337.372 130.808,298.372 151,260.5C 175.448,219.834 210.615,193.001 256.5,180C 220.419,182.805 187.085,193.805 156.5,213C 120.151,240.525 101.318,277.358 100,323.5C 99.3754,337.511 99.5421,351.511 100.5,365.5C 98.2776,365.822 96.4443,365.155 95,363.5C 90.2622,349.287 85.9288,334.953 82,320.5C 73.5416,283.537 77.2082,247.87 93,213.5C 106.5,189.333 125.333,170.5 149.5,157C 186.087,138.207 223.753,121.874 262.5,108C 281.832,100.501 300.165,91.1679 317.5,80C 322.134,76.3679 326.467,72.3679 330.5,68C 333.025,67.1041 335.192,67.6041 337,69.5C 343.894,102.997 348.394,136.664 350.5,170.5 Z"/></g>
<g><path style="opacity:1" fill="#ca3c11" d="M 50.5,78.5 C 50.8432,80.4832 50.1765,81.8166 48.5,82.5C 48.9887,81.0048 49.6554,79.6715 50.5,78.5 Z"/></g>
<g><path style="opacity:1" fill="#cb3b13" d="M 44.5,92.5 C 44.8432,94.4832 44.1765,95.8166 42.5,96.5C 42.9887,95.0048 43.6554,93.6715 44.5,92.5 Z"/></g>
<g><path style="opacity:1" fill="#cc3b11" d="M 38.5,106.5 C 38.8432,108.483 38.1765,109.817 36.5,110.5C 36.9887,109.005 37.6554,107.671 38.5,106.5 Z"/></g>
<g><path style="opacity:1" fill="#cf3a10" d="M 88.5,151.5 C 88.7148,153.179 88.0481,154.179 86.5,154.5C 86.9321,153.29 87.5987,152.29 88.5,151.5 Z"/></g>
<g><path style="opacity:1" fill="#cd3b0e" d="M 18.5,154.5 C 18.8432,156.483 18.1765,157.817 16.5,158.5C 16.9887,157.005 17.6554,155.671 18.5,154.5 Z"/></g>
<g><path style="opacity:1" fill="#d73807" d="M 92.5,192.5 C 91.1363,194.191 89.803,195.858 88.5,197.5C 87.4017,196.399 87.235,195.066 88,193.5C 89.2259,191.452 90.7259,191.119 92.5,192.5 Z"/></g>
</svg>
