<svg version="1.1" id="Layer_1" xmlns="http://www.w3.org/2000/svg" xmlns:xlink="http://www.w3.org/1999/xlink" x="0px" y="0px"
	 width="100%" viewBox="0 0 351 383" enable-background="new 0 0 351 383" xml:space="preserve">
<path fill="#2B2B2B" opacity="1.000000" stroke="none" 
	d="
M351.774506,171.674072 
	C352.000000,180.687561 352.000000,189.375137 352.000000,198.531342 
	C350.874786,206.233826 351.573120,213.540924 351.074615,220.815552 
	C348.010803,265.524963 333.802185,305.562714 301.421509,337.632355 
	C281.816925,357.048584 257.672638,368.840424 231.390244,376.652832 
	C215.123749,381.488037 198.555481,383.574707 181.327469,383.774353 
	C170.979111,384.000000 160.958206,384.000000 150.468658,384.000000 
	C145.066345,383.003448 142.402908,379.624939 140.683212,375.203186 
	C135.929947,362.981537 133.500229,350.361023 132.987869,337.216827 
	C132.169373,316.218109 135.546906,296.052887 143.601364,276.682953 
	C157.764526,242.622452 181.748047,217.311661 213.294693,198.780518 
	C219.479111,195.147659 225.846802,191.905746 232.438538,189.056488 
	C238.982559,186.227844 245.627640,183.794830 251.105804,182.789673 
	C240.965302,185.792587 228.915710,187.535187 217.190033,190.679550 
	C194.626770,196.730087 173.322296,205.454697 154.578766,219.711517 
	C128.545212,239.513321 113.688385,266.166473 107.104134,297.762024 
	C102.900757,317.932556 101.792915,338.324585 103.686813,358.860321 
	C103.732719,359.358032 103.819511,359.857452 103.796951,360.354645 
	C103.664635,363.271393 104.484772,366.927704 100.620567,367.871796 
	C96.699165,368.829865 94.926750,365.736237 93.848686,362.640472 
	C84.450066,335.651306 76.265770,308.361115 77.128632,279.358917 
	C78.279701,240.669968 90.666542,206.548584 119.363190,179.503128 
	C132.932816,166.714294 148.804596,157.198608 165.314224,148.739868 
	C191.161499,135.496994 218.310898,125.304573 245.274994,114.664894 
	C265.722076,106.596756 286.303192,98.785225 305.407013,87.702293 
	C313.354950,83.091354 320.980591,78.059631 327.433319,71.412521 
	C329.799652,68.974937 332.462067,66.778412 336.216644,67.907059 
	C339.995087,69.042862 340.888947,72.381241 341.527283,75.714706 
	C345.191925,94.851593 348.745148,114.032700 350.317596,133.458633 
	C351.335876,146.038651 351.745453,158.698425 351.774506,171.674072 
z"/>
<path fill="#FFFFFE" opacity="1.000000" stroke="none" 
	d="
M352.000000,171.531342 
	C350.905640,171.726761 351.014343,170.833130 351.020386,170.030807 
	C351.139648,154.222763 348.987427,138.624268 347.134399,122.965385 
	C345.166290,106.333939 342.278656,89.892395 338.978973,73.503494 
	C337.927856,68.282837 334.328369,67.147865 330.659210,70.931915 
	C317.605408,84.394409 301.324188,92.593475 284.537506,100.265999 
	C260.198151,111.390556 234.967239,120.242889 210.262253,130.414825 
	C190.571381,138.522263 171.031281,147.048630 152.565643,157.809967 
	C129.099365,171.485550 108.978104,188.467682 95.933334,212.914078 
	C88.167175,227.468170 83.158592,242.777161 80.942886,259.103271 
	C79.769073,267.752411 78.760437,276.391846 79.016289,285.123047 
	C79.658859,307.051971 83.997452,328.268829 91.403931,348.896820 
	C93.087250,353.585052 94.598763,358.346222 95.923729,363.147125 
	C96.584877,365.542755 97.693497,367.173370 100.235680,366.943207 
	C103.681839,366.631226 102.051277,363.667145 101.873322,362.286072 
	C100.810593,354.038391 100.968079,345.774048 101.011917,337.508911 
	C101.148865,311.694305 105.421761,286.631958 116.542770,263.217590 
	C121.602966,252.563736 128.326965,242.826157 136.369278,233.877518 
	C149.585007,219.172485 165.552917,208.570251 183.224167,200.489639 
	C199.080597,193.238861 215.811066,188.307541 232.968292,185.021805 
	C241.061020,183.471970 249.197174,182.148849 257.413147,181.130493 
	C245.412476,185.684799 233.418701,190.113464 222.061493,196.010223 
	C202.714737,206.055222 185.531509,219.072464 171.191940,235.460464 
	C155.207184,253.728683 143.964569,274.805878 138.372284,298.461426 
	C134.037857,316.796112 133.546219,335.396545 136.760010,354.163513 
	C137.949097,361.107147 140.251480,367.587006 142.198563,374.213715 
	C143.333618,378.076752 145.649841,381.647430 149.904800,383.661865 
	C101.575081,384.000000 53.150070,383.963501 4.725449,384.083679 
	C1.558472,384.091522 0.915154,383.310303 0.923221,380.236633 
	C1.036345,337.137085 1.000000,294.037170 1.000000,250.468658 
	C3.753458,250.222397 3.637719,252.515793 3.927889,254.317215 
	C4.448213,257.547485 5.080376,260.750854 5.832871,264.338470 
	C6.028276,266.508667 6.401345,268.232697 7.172600,270.240662 
	C13.106734,292.304962 24.491848,310.908966 39.466145,327.401489 
	C50.043785,339.051605 62.156265,348.953094 75.606194,357.140411 
	C77.320824,358.184174 79.000832,360.657990 81.715858,358.450195 
	C81.842590,356.750641 81.348022,355.507721 80.621826,353.952148 
	C76.764854,339.355042 70.980446,326.069550 63.024857,313.584869 
	C55.914101,302.425995 51.899467,289.905548 49.488670,276.498505 
	C49.642262,274.482330 49.019878,273.000092 48.526543,271.077942 
	C47.946659,267.911621 47.952934,265.086182 47.442863,261.890320 
	C47.552067,255.800369 47.486137,250.145630 47.489418,244.054596 
	C47.456215,240.773865 48.150375,237.997757 48.342308,234.755829 
	C48.683483,232.755707 49.420029,231.272186 49.455826,229.235199 
	C51.420574,215.242950 55.703468,202.419617 62.624184,190.147003 
	C64.118797,188.971359 66.414139,189.461639 66.844444,186.897736 
	C67.349007,186.631577 67.586998,186.592346 68.089462,186.290619 
	C71.837753,183.433090 74.289482,184.973953 76.599884,188.352661 
	C77.458488,189.911728 77.543396,191.212784 77.231888,192.919037 
	C77.047684,193.514343 76.955185,193.742798 76.687576,194.287079 
	C75.286720,195.921829 75.427559,197.534210 75.606354,199.495483 
	C75.948067,201.362488 75.768387,202.867004 75.550972,204.755783 
	C74.653961,207.860809 74.325813,210.646408 74.442780,213.858276 
	C73.976929,217.358368 73.489044,220.487289 73.922195,224.098618 
	C89.466774,189.131760 116.340492,165.561142 148.712372,146.876373 
	C150.115814,146.270920 151.147842,145.726181 152.311462,144.705353 
	C165.938324,137.386292 179.340179,130.414581 193.444901,124.901901 
	C196.223267,123.816002 199.039276,122.779900 201.798141,120.865158 
	C203.146652,119.606728 203.392334,118.436577 202.494598,116.793671 
	C196.130692,106.576866 188.494614,97.778908 180.919098,88.945290 
	C167.675461,73.502190 152.635788,59.889690 136.973358,47.006760 
	C119.901505,32.964508 102.633026,19.137218 83.762306,7.490260 
	C81.500771,6.094447 79.257408,4.579481 78.853996,1.326368 
	C168.578247,1.000000 258.156525,1.025371 347.734619,0.906416 
	C351.284973,0.901701 352.113495,1.568812 352.103607,5.226654 
	C351.954254,60.505020 352.000000,115.783913 352.000000,171.531342 
z"/>
<path fill="#E23402" opacity="1.000000" stroke="none" 
	d="
M204.259583,121.653290 
	C187.033997,129.418365 170.044373,136.869904 153.416260,145.919403 
	C152.282288,146.767151 150.911133,146.181625 150.130264,147.568466 
	C129.680649,159.202042 111.999847,173.824402 96.479347,191.074341 
	C87.482330,201.073883 80.687988,212.457275 75.874809,225.046463 
	C75.399864,226.288712 75.233307,228.868866 73.083420,228.338531 
	C71.369431,227.915710 72.032768,225.785767 72.021126,224.363327 
	C71.996658,221.374054 72.097351,218.383759 72.507233,215.156021 
	C74.245468,211.909988 73.106285,208.716812 73.744377,205.254669 
	C73.964294,203.228455 73.989594,201.587570 74.037140,199.537094 
	C74.188362,198.960114 74.317329,198.792694 74.605713,198.351074 
	C75.217293,196.893738 74.695114,195.503632 75.743637,194.156601 
	C75.971519,192.560867 76.000885,191.213531 76.081024,189.464981 
	C75.503090,187.430649 75.685524,185.796783 76.160500,184.175354 
	C80.230103,170.282883 84.941460,156.655563 92.900757,143.712845 
	C85.699783,156.542587 76.796921,167.632599 70.546036,180.737457 
	C69.528313,182.383240 68.948746,183.834015 68.468781,185.681778 
	C67.823128,186.084869 67.421494,185.992706 66.895401,185.373993 
	C66.512268,185.254211 66.319153,185.410339 66.154099,185.937912 
	C66.560509,187.806259 65.910332,188.827713 64.418625,189.792542 
	C59.653423,198.265137 57.625973,207.523773 53.794849,215.991043 
	C51.914791,220.146210 53.002785,224.407913 51.037769,228.646133 
	C50.159348,230.450394 50.686855,231.992233 50.248116,233.788193 
	C49.597912,236.822174 50.836155,239.703674 49.039062,242.662018 
	C48.068680,249.084412 48.667816,255.159988 48.688515,261.632080 
	C50.895065,264.444702 49.662140,267.341248 50.047371,270.420410 
	C50.878284,272.270844 50.313728,273.842743 50.676964,275.687683 
	C52.364281,281.650482 53.738113,287.281799 55.793587,292.770996 
	C58.480556,299.946655 60.830383,307.216278 65.144585,313.649750 
	C73.248207,325.734039 78.899857,338.873047 82.020943,353.495636 
	C82.953178,354.951935 81.821014,356.724365 83.579079,357.802490 
	C83.832230,362.133911 82.112946,363.251953 78.745201,361.222900 
	C48.696491,343.118286 25.003077,319.223419 10.969569,286.583588 
	C8.927716,281.834564 6.552902,277.175323 5.961128,271.515381 
	C4.923945,269.718994 6.190332,267.717987 4.432012,266.215942 
	C3.064939,260.828552 1.775556,255.701889 1.374978,250.190048 
	C1.000000,241.645767 1.000000,233.291534 1.000000,224.468658 
	C2.237875,221.338333 0.897279,218.427200 1.898668,215.366486 
	C2.522997,213.551895 2.519436,212.043884 2.503294,210.156021 
	C2.521464,208.001221 2.366417,206.207947 3.133588,204.135239 
	C3.670561,202.642578 4.229639,201.546051 4.202856,199.915955 
	C6.119363,186.463654 10.854975,174.197968 15.324906,161.886093 
	C23.093393,140.488754 32.312473,119.686012 41.942482,98.662712 
	C42.338718,97.910667 42.578072,97.494499 42.982544,96.772812 
	C43.238155,96.254181 43.337551,96.046204 43.575645,95.523323 
	C43.976578,94.564316 44.231110,93.917526 44.485512,92.883911 
	C49.543938,79.656273 55.274815,67.089813 59.866371,54.063549 
	C63.520287,43.697361 66.357361,33.107567 69.112320,22.094547 
	C69.994858,20.118847 70.113045,18.437027 69.697746,16.307659 
	C69.882118,12.818767 69.965225,9.721988 70.064735,6.624431 
	C70.127998,4.655287 70.384811,2.679378 72.647369,1.233374 
	C74.714355,1.000000 76.428719,1.000000 78.571533,1.000000 
	C83.209717,6.518032 89.851463,8.670809 95.165619,12.666225 
	C105.459465,20.405598 115.955742,27.880495 126.135208,35.765694 
	C134.079041,41.919125 142.122589,48.063904 149.295456,55.059807 
	C156.951508,62.526951 165.569244,68.964882 172.600998,77.075859 
	C183.360855,89.487129 194.697083,101.427094 203.894104,115.541077 
	C204.920593,117.589012 204.352493,119.437607 204.259583,121.653290 
z"/>
<path fill="#FFFFFE" opacity="1.000000" stroke="none" 
	d="
M5.308627,203.707642 
	C3.727735,205.494537 3.991081,207.345139 3.956373,209.523178 
	C3.101606,211.314880 3.692763,212.867691 3.306940,214.678101 
	C0.874585,217.597656 2.682894,220.845642 1.368689,223.819916 
	C1.000000,151.108383 1.024807,78.216736 0.921147,5.325273 
	C0.916348,1.951302 1.325758,0.834712 5.163589,0.877733 
	C27.460943,1.127676 49.762527,1.000000 72.531342,1.000000 
	C71.275436,3.503539 72.178368,6.341960 72.013100,9.035150 
	C71.866348,11.426602 72.350868,13.886450 71.136597,16.542860 
	C71.711258,18.355791 71.442719,19.799648 71.313011,21.633003 
	C68.778107,30.568275 66.629028,39.174423 63.940609,47.608658 
	C58.979527,63.172806 52.652828,78.221443 45.979889,93.500496 
	C45.595749,94.356651 45.504528,94.931824 45.299721,95.774597 
	C45.176579,96.039139 45.019249,96.441406 44.993690,96.655869 
	C44.830288,97.054718 44.692440,97.239120 44.355564,97.705734 
	C33.843719,121.376617 23.196091,144.617706 14.913197,168.856277 
	C11.509596,178.816376 7.957417,188.699371 5.968161,199.478333 
	C5.168218,200.963364 5.650839,202.218765 5.308627,203.707642 
z"/>
<path fill="#FFFFFF" opacity="1.000000" stroke="none" 
	d="
M181.468658,384.000000 
	C185.333633,381.708466 190.176346,382.860535 194.741898,382.222778 
	C215.485718,379.325348 235.563324,374.414398 254.840454,366.081299 
	C274.395935,357.627930 291.699036,345.970520 306.055359,330.296417 
	C317.484924,317.817688 326.412476,303.647003 333.165039,287.979980 
	C339.196869,273.985321 343.539001,259.557739 346.549469,244.722519 
	C348.228210,236.450073 348.618805,227.923340 350.086395,219.598724 
	C351.275055,212.856384 350.654816,206.093842 351.599792,199.180862 
	C352.000000,259.259125 351.957672,319.518341 352.103882,379.777130 
	C352.112762,383.441284 351.275757,384.102966 347.732849,384.094330 
	C292.467926,383.959564 237.202576,384.000000 181.468658,384.000000 
z"/>
<path fill="#FBFDFA" opacity="1.000000" stroke="none" 
	d="
M68.791351,181.200378 
	C72.715591,170.808868 79.255463,162.343338 85.040405,153.446304 
	C88.221481,148.553925 91.675552,143.839050 95.563034,139.324692 
	C88.108566,155.367279 80.956604,171.454330 76.461685,188.866486 
	C73.809875,186.298309 70.525253,186.281631 67.022163,185.541168 
	C66.705383,185.098083 66.797653,184.932098 66.850166,184.920776 
	C68.075378,184.081268 69.086136,183.169998 68.791351,181.200378 
z"/>
<path fill="#C33F19" opacity="1.000000" stroke="none" 
	d="
M48.909504,261.573486 
	C47.233040,255.965134 48.002888,249.831833 48.623360,243.370239 
	C48.898090,249.057114 48.941021,255.081512 48.909504,261.573486 
z"/>
<path fill="#FBFDFA" opacity="1.000000" stroke="none" 
	d="
M64.485016,190.093628 
	C64.698425,188.922073 65.231171,187.836151 65.973038,186.529785 
	C66.522659,186.844528 66.912041,187.355377 67.193077,187.920151 
	C67.714226,188.967407 69.505028,189.835007 68.368988,191.148453 
	C66.863991,192.888458 66.040863,190.414307 64.485016,190.093628 
z"/>
<path fill="#C23F19" opacity="1.000000" stroke="none" 
	d="
M73.586731,205.111313 
	C73.778526,208.034622 74.566406,211.248138 73.161926,214.641632 
	C72.990021,211.729874 73.112244,208.541565 73.586731,205.111313 
z"/>
<path fill="#CC3C0F" opacity="1.000000" stroke="none" 
	d="
M150.307037,147.857971 
	C148.853439,144.560837 151.075394,145.795715 152.803864,146.018219 
	C152.269608,146.660049 151.448593,147.261414 150.307037,147.857971 
z"/>
<path fill="#BE401E" opacity="1.000000" stroke="none" 
	d="
M204.413055,121.879028 
	C204.057449,120.294533 204.042404,118.518501 204.032944,116.296394 
	C205.869476,117.600929 204.858948,119.699661 204.413055,121.879028 
z"/>
<path fill="#FBFDFA" opacity="1.000000" stroke="none" 
	d="
M75.158005,198.644150 
	C74.882431,198.977371 74.469543,199.045578 74.264465,199.086548 
	C74.504272,197.498779 72.883018,195.679504 74.820099,194.108353 
	C75.767937,195.434921 75.432686,196.885208 75.158005,198.644150 
z"/>
<path fill="#C74016" opacity="1.000000" stroke="none" 
	d="
M4.187207,266.345459 
	C6.567730,266.680756 5.863947,268.681091 5.962902,270.725220 
	C4.036956,270.165527 5.821374,267.771393 4.187207,266.345459 
z"/>
<path fill="#CB3A10" opacity="1.000000" stroke="none" 
	d="
M83.825043,357.681305 
	C81.504250,357.770996 81.361992,356.338501 81.992844,354.204102 
	C83.699181,354.488647 82.437271,356.593353 83.825043,357.681305 
z"/>
<path fill="#C13F1D" opacity="1.000000" stroke="none" 
	d="
M75.164215,198.721375 
	C74.931145,197.608856 74.979858,196.240356 75.075668,194.464050 
	C75.122772,194.056259 75.534126,193.990433 75.738144,193.949310 
	C75.920486,195.442902 76.274353,197.018494 75.164215,198.721375 
z"/>
<path fill="#C43C1E" opacity="1.000000" stroke="none" 
	d="
M50.395149,233.904724 
	C50.179222,232.618256 50.293087,231.120087 50.628815,229.322891 
	C50.808765,230.580261 50.766857,232.136642 50.395149,233.904724 
z"/>
<path fill="#C13E19" opacity="1.000000" stroke="none" 
	d="
M50.895855,275.645508 
	C49.711056,274.719360 50.086437,273.130096 50.046169,271.230774 
	C51.794735,272.018097 50.702251,273.773407 50.895855,275.645508 
z"/>
<path fill="#FFFFFE" opacity="1.000000" stroke="none" 
	d="
M68.659233,181.012527 
	C69.594032,182.562149 70.817337,184.410187 67.302765,184.922333 
	C67.395432,183.652313 67.888184,182.395187 68.659233,181.012527 
z"/>
<path fill="#C04216" opacity="1.000000" stroke="none" 
	d="
M3.376650,214.719284 
	C3.191247,213.456787 3.225272,211.889771 3.593298,210.117859 
	C3.816891,211.413559 3.706484,212.914154 3.376650,214.719284 
z"/>
<path fill="#C14315" opacity="1.000000" stroke="none" 
	d="
M71.375900,21.766045 
	C71.119881,20.624775 71.069267,19.209871 71.106827,17.377413 
	C72.287781,18.388542 72.153671,19.921799 71.375900,21.766045 
z"/>
<path fill="#CB3C20" opacity="1.000000" stroke="none" 
	d="
M5.380590,203.748276 
	C5.207907,202.783249 5.249630,201.528183 5.619776,200.080475 
	C5.830464,201.077972 5.712730,202.268097 5.380590,203.748276 
z"/>
<path fill="#CD3912" opacity="1.000000" stroke="none" 
	d="
M45.372429,95.813782 
	C45.236851,95.409752 45.297123,94.780357 45.654579,94.008835 
	C45.823933,94.440613 45.696102,95.014519 45.372429,95.813782 
z"/>
<path fill="#CD3912" opacity="1.000000" stroke="none" 
	d="
M44.338196,97.838058 
	C44.256474,97.674690 44.356415,97.361420 44.712242,96.959236 
	C44.898090,97.186455 44.748665,97.459068 44.338196,97.838058 
z"/>
</svg>