<?xml version="1.0" standalone="no"?>
<!DOCTYPE svg PUBLIC "-//W3C//DTD SVG 20010904//EN"
 "http://www.w3.org/TR/2001/REC-SVG-20010904/DTD/svg10.dtd">
<svg version="1.0" xmlns="http://www.w3.org/2000/svg"
 width="351.000000pt" height="383.000000pt" viewBox="0 0 351.000000 383.000000"
 preserveAspectRatio="xMidYMid meet">

<g transform="translate(0.000000,383.000000) scale(0.100000,-0.100000)"
fill="#000000" stroke="none">
<path d="M715 3818 c-2 -7 -6 -54 -9 -104 -14 -211 -76 -391 -344 -1009 -199
-459 -277 -679 -330 -925 -23 -111 -26 -146 -26 -315 1 -180 2 -196 32 -308
37 -142 114 -308 204 -439 113 -167 350 -384 531 -487 73 -41 74 -27 17 152
-39 120 -64 178 -107 249 -184 302 -241 614 -174 945 45 216 156 463 321 710
142 213 156 225 79 68 -77 -157 -142 -343 -169 -484 -24 -121 -37 -306 -23
-314 6 -4 34 42 66 106 66 134 136 231 254 351 215 216 447 365 841 537 184
80 188 85 126 172 -245 339 -623 686 -1136 1040 -94 65 -144 83 -153 55z"/>
<path d="M3270 3105 c-123 -126 -349 -244 -810 -425 -770 -302 -1048 -446
-1274 -659 -340 -322 -476 -832 -366 -1370 20 -100 126 -448 143 -468 5 -7 18
-13 28 -13 17 0 18 10 12 173 -32 958 428 1497 1424 1667 158 27 165 25 58
-14 -358 -130 -634 -320 -830 -571 -211 -270 -315 -566 -315 -894 0 -222 49
-432 117 -500 l34 -34 197 6 c273 8 466 41 690 115 563 189 913 582 1057 1187
84 350 94 780 30 1285 -30 231 -82 530 -97 548 -20 24 -54 12 -98 -33z"/>
</g>
</svg>
